<svg style="position: absolute; width: 0; height: 0;" width="0" height="0" version="1.1" xmlns="http://www.w3.org/2000/svg" xmlns:xlink="http://www.w3.org/1999/xlink">
<defs>
<symbol id="icon-image" viewBox="0 0 30 28">
<title>image</title>
<path class="path1" d="M10 9q0 1.25-0.875 2.125t-2.125 0.875-2.125-0.875-0.875-2.125 0.875-2.125 2.125-0.875 2.125 0.875 0.875 2.125zM26 15v7h-22v-3l5-5 2.5 2.5 8-8zM27.5 4h-25q-0.203 0-0.352 0.148t-0.148 0.352v19q0 0.203 0.148 0.352t0.352 0.148h25q0.203 0 0.352-0.148t0.148-0.352v-19q0-0.203-0.148-0.352t-0.352-0.148zM30 4.5v19q0 1.031-0.734 1.766t-1.766 0.734h-25q-1.031 0-1.766-0.734t-0.734-1.766v-19q0-1.031 0.734-1.766t1.766-0.734h25q1.031 0 1.766 0.734t0.734 1.766z"></path>
</symbol>
<symbol id="icon-edit" viewBox="0 0 28 28">
<title>edit</title>
<path class="path1" d="M13.875 18.5l1.813-1.813-2.375-2.375-1.813 1.813v0.875h1.5v1.5h0.875zM20.75 7.25q-0.25-0.25-0.516 0.016l-5.469 5.469q-0.266 0.266-0.016 0.516t0.516-0.016l5.469-5.469q0.266-0.266 0.016-0.516zM22 16.531v2.969q0 1.859-1.32 3.18t-3.18 1.32h-13q-1.859 0-3.18-1.32t-1.32-3.18v-13q0-1.859 1.32-3.18t3.18-1.32h13q0.984 0 1.828 0.391 0.234 0.109 0.281 0.359 0.047 0.266-0.141 0.453l-0.766 0.766q-0.219 0.219-0.5 0.125-0.359-0.094-0.703-0.094h-13q-1.031 0-1.766 0.734t-0.734 1.766v13q0 1.031 0.734 1.766t1.766 0.734h13q1.031 0 1.766-0.734t0.734-1.766v-1.969q0-0.203 0.141-0.344l1-1q0.234-0.234 0.547-0.109t0.313 0.453zM20.5 5l4.5 4.5-10.5 10.5h-4.5v-4.5zM27.438 7.063l-1.437 1.437-4.5-4.5 1.437-1.437q0.438-0.438 1.062-0.438t1.062 0.438l2.375 2.375q0.438 0.438 0.438 1.062t-0.438 1.062z"></path>
</symbol>
<symbol id="icon-crop" viewBox="0 0 24 24">
<title>crop</title>
<path class="path1" d="M18.984 3c1.078 0 2.016 0.938 2.016 2.016v3.984h-2.016v-3.984h-3.984v-2.016h3.984zM18.984 18.984v-3.984h2.016v3.984c0 1.078-0.938 2.016-2.016 2.016h-3.984v-2.016h3.984zM5.016 15v3.984h3.984v2.016h-3.984c-1.078 0-2.016-0.938-2.016-2.016v-3.984h2.016zM3 5.016c0-1.078 0.938-2.016 2.016-2.016h3.984v2.016h-3.984v3.984h-2.016v-3.984z"></path>
</symbol>
<symbol id="icon-desktop-mac" viewBox="0 0 24 24">
<title>desktop-mac</title>
<path class="path1" d="M21 14.016v-10.031h-18v10.031h18zM21 2.016c1.078 0 2.016 0.891 2.016 1.969v12c0 1.078-0.938 2.016-2.016 2.016h-6.984l1.969 3v0.984h-7.969v-0.984l1.969-3h-6.984c-1.078 0-2.016-0.938-2.016-2.016v-12c0-1.078 0.938-1.969 2.016-1.969h18z"></path>
</symbol>
<symbol id="icon-desktop-windows" viewBox="0 0 24 24">
<title>desktop-windows</title>
<path class="path1" d="M21 15.984v-12h-18v12h18zM21 2.016c1.078 0 2.016 0.891 2.016 1.969v12c0 1.078-0.938 2.016-2.016 2.016h-6.984v2.016h1.969v1.969h-7.969v-1.969h1.969v-2.016h-6.984c-1.078 0-2.016-0.938-2.016-2.016v-12c0-1.078 0.938-1.969 2.016-1.969h18z"></path>
</symbol>
<symbol id="icon-crop-center" viewBox="0 0 24 24">
<title>crop-center</title>
<path class="path1" d="M12 9c1.641 0 3 1.359 3 3s-1.359 3-3 3-3-1.359-3-3 1.359-3 3-3zM18.984 18.984v-3.984h2.016v3.984c0 1.078-0.938 2.016-2.016 2.016h-3.984v-2.016h3.984zM18.984 3c1.078 0 2.016 0.938 2.016 2.016v3.984h-2.016v-3.984h-3.984v-2.016h3.984zM5.016 5.016v3.984h-2.016v-3.984c0-1.078 0.938-2.016 2.016-2.016h3.984v2.016h-3.984zM5.016 15v3.984h3.984v2.016h-3.984c-1.078 0-2.016-0.938-2.016-2.016v-3.984h2.016z"></path>
</symbol>
<symbol id="icon-fullscreen" viewBox="0 0 24 24">
<title>fullscreen</title>
<path class="path1" d="M16.27 7.73h3.215v2.11h-5.324v-5.324h2.11v3.215zM14.16 19.484v-5.324h5.324v2.11h-3.215v3.215h-2.11zM7.73 7.73v-3.215h2.11v5.324h-5.324v-2.11h3.215zM4.516 16.27v-2.11h5.324v5.324h-2.11v-3.215h-3.215z"></path>
</symbol>
<symbol id="icon-visibility" viewBox="0 0 24 24">
<title>visibility</title>
<path class="path1" d="M12 9c1.641 0 3 1.359 3 3s-1.359 3-3 3-3-1.359-3-3 1.359-3 3-3zM12 17.016c2.766 0 5.016-2.25 5.016-5.016s-2.25-5.016-5.016-5.016-5.016 2.25-5.016 5.016 2.25 5.016 5.016 5.016zM12 4.5c5.016 0 9.281 3.094 11.016 7.5-1.734 4.406-6 7.5-11.016 7.5s-9.281-3.094-11.016-7.5c1.734-4.406 6-7.5 11.016-7.5z"></path>
</symbol>
</defs>
</svg>
